<svg width="11" height="12" viewBox="0 0 11 12" fill="none" xmlns="http://www.w3.org/2000/svg">
<path fill-rule="evenodd" clip-rule="evenodd" d="M8.28931 9.99551H2.71069C2.26532 9.99551 1.90272 9.62814 1.90272 9.17693V5.84365H9.09728V9.17693C9.09728 9.62814 8.73468 9.99551 8.28931 9.99551ZM8.1813 1.28536C8.17569 0.897384 7.86569 0.583313 7.48205 0.583313C7.0977 0.583313 6.787 0.897384 6.78209 1.28536H4.21791C4.213 0.897384 3.9023 0.583313 3.51795 0.583313C3.13431 0.583313 2.82431 0.897384 2.8187 1.28536H2.71069C1.49172 1.28536 0.5 2.2901 0.5 3.52507V9.17693C0.5 10.4119 1.49172 11.4166 2.71069 11.4166H8.28931C9.50828 11.4166 10.5 10.4119 10.5 9.17693V3.52507C10.5 2.2901 9.50828 1.28536 8.28931 1.28536H8.1813Z" fill="#667185"/>
<mask id="mask0_1528_392" style="mask-type:luminance" maskUnits="userSpaceOnUse" x="0" y="0" width="11" height="12">
<path fill-rule="evenodd" clip-rule="evenodd" d="M8.28931 9.99551H2.71069C2.26532 9.99551 1.90272 9.62814 1.90272 9.17693V5.84365H9.09728V9.17693C9.09728 9.62814 8.73468 9.99551 8.28931 9.99551ZM8.1813 1.28536C8.17569 0.897384 7.86569 0.583313 7.48205 0.583313C7.0977 0.583313 6.787 0.897384 6.78209 1.28536H4.21791C4.213 0.897384 3.9023 0.583313 3.51795 0.583313C3.13431 0.583313 2.82431 0.897384 2.8187 1.28536H2.71069C1.49172 1.28536 0.5 2.2901 0.5 3.52507V9.17693C0.5 10.4119 1.49172 11.4166 2.71069 11.4166H8.28931C9.50828 11.4166 10.5 10.4119 10.5 9.17693V3.52507C10.5 2.2901 9.50828 1.28536 8.28931 1.28536H8.1813Z" fill="white"/>
</mask>
<g mask="url(#mask0_1528_392)">
</g>
</svg>
