<svg width="13" height="14" viewBox="0 0 13 14" fill="none" xmlns="http://www.w3.org/2000/svg">
  <path fill-rule="evenodd" clip-rule="evenodd" d="M6.51732 7.80047L5.73562 7.23761C5.41179 7.00504 5.33911 6.55443 5.57169 6.23141C5.80426 5.90758 6.25487 5.8341 6.57789 6.06748L7.35959 6.63034C7.68342 6.86291 7.7569 7.31352 7.52352 7.63654C7.29095 7.95956 6.84034 8.03304 6.51732 7.80047ZM9.46648 8.14691L9.85733 8.42874L12.0272 5.41498C12.2339 5.12749 12.1693 4.72614 11.881 4.51941L10.9717 3.86369C10.7585 3.71106 10.4638 3.6828 10.2514 3.83623C9.82341 4.14552 9.22906 4.16248 8.77764 3.83704C8.32622 3.5116 8.15341 2.94228 8.31088 2.43918C8.38921 2.18884 8.26889 1.91831 8.0565 1.76487L7.1464 1.10996C6.85891 0.902416 6.45756 0.967828 6.25002 1.25531L4.08096 4.26907L4.47181 4.55091C4.79483 4.78348 4.86831 5.23409 4.63574 5.55711C4.40317 5.88013 3.95256 5.95361 3.62873 5.72104L3.23788 5.43921L0.972715 8.5846C0.765983 8.87289 0.830587 9.27343 1.11888 9.48097L2.02818 10.1359C2.24137 10.2893 2.53612 10.3176 2.74851 10.1642C3.17651 9.85486 3.77086 9.83791 4.22228 10.1633C4.6737 10.4888 4.84651 11.0573 4.68904 11.5612C4.61071 11.8107 4.73103 12.0821 4.94342 12.2355L5.85352 12.8904C6.14101 13.0972 6.54236 13.0326 6.74989 12.7443L9.01425 9.59887L8.6234 9.31704C8.30038 9.08447 8.22689 8.63386 8.45947 8.31084C8.69204 7.98782 9.14265 7.91433 9.46648 8.14691Z" fill="#667185"/>
  <mask id="mask0_1528_464" style="mask-type:luminance" maskUnits="userSpaceOnUse" x="0" y="0" width="13" height="14">
    <path fill-rule="evenodd" clip-rule="evenodd" d="M6.51732 7.80047L5.73562 7.23761C5.41179 7.00504 5.33911 6.55443 5.57169 6.23141C5.80426 5.90758 6.25487 5.8341 6.57789 6.06748L7.35959 6.63034C7.68342 6.86291 7.7569 7.31352 7.52352 7.63654C7.29095 7.95956 6.84034 8.03304 6.51732 7.80047ZM9.46648 8.14691L9.85733 8.42874L12.0272 5.41498C12.2339 5.12749 12.1693 4.72614 11.881 4.51941L10.9717 3.86369C10.7585 3.71106 10.4638 3.6828 10.2514 3.83623C9.82341 4.14552 9.22906 4.16248 8.77764 3.83704C8.32622 3.5116 8.15341 2.94228 8.31088 2.43918C8.38921 2.18884 8.26889 1.91831 8.0565 1.76487L7.1464 1.10996C6.85891 0.902416 6.45756 0.967828 6.25002 1.25531L4.08096 4.26907L4.47181 4.55091C4.79483 4.78348 4.86831 5.23409 4.63574 5.55711C4.40317 5.88013 3.95256 5.95361 3.62873 5.72104L3.23788 5.43921L0.972715 8.5846C0.765983 8.87289 0.830587 9.27343 1.11888 9.48097L2.02818 10.1359C2.24137 10.2893 2.53612 10.3176 2.74851 10.1642C3.17651 9.85486 3.77086 9.83791 4.22228 10.1633C4.6737 10.4888 4.84651 11.0573 4.68904 11.5612C4.61071 11.8107 4.73103 12.0821 4.94342 12.2355L5.85352 12.8904C6.14101 13.0972 6.54236 13.0326 6.74989 12.7443L9.01425 9.59887L8.6234 9.31704C8.30038 9.08447 8.22689 8.63386 8.45947 8.31084C8.69204 7.98782 9.14265 7.91433 9.46648 8.14691Z" fill="white"/>
  </mask>
  <g mask="url(#mask0_1528_464)">
  </g>
</svg>
